# xmcd CD database file
# Copyright (C) 1993-1998 Ti Kan
# Generated: Wed Apr 8 20:30:59 1998 by KSCD
# 
# Track frame offsets:
#       150
#       17652
#       34237
#       49702
#       64787
#       90892
#       108632
#       125805
#       137267
#       147045
#       171682
#       190610
#
# Disc length: 2668 seconds
#
# Revision: 2
# Processed by: cddbd v1.4b41PL1 Copyright (c) Steve Scherf et al.
# Submitted via: Kscd 0.8.0
#
DISCID=a20a6a0c
DTITLE=Reverend Rusty and The Case - Born For The Blues
DYEAR=1900
DGENRE=
TTITLE0=Shake Your Moneymaker
TTITLE1=Wait On Time
TTITLE2=Work For Your Dreams
TTITLE3=Born For The Blues
TTITLE4=Lonesome Guitar
TTITLE5=Big Boss Man
TTITLE6=Chitlins Con Carne
TTITLE7=Westend Bound
TTITLE8=Rusty's Twang
TTITLE9=Fool For Your Stockings
TTITLE10=The Sky Is Crying
TTITLE11=Down In Lousiana
EXTD=1997 Viceroots
EXTT0=
EXTT1=
EXTT2=
EXTT3=
EXTT4=
EXTT5=
EXTT6=
EXTT7=
EXTT8=
EXTT9=
EXTT10=
EXTT11=
PLAYORDER=
